{
    "asset" : {
        "generator" : "Khronos glTF Blender I/O v1.2.75",
        "version" : "2.0"
    },
    "scene" : 0,
    "scenes" : [
        {
            "name" : "Scene",
            "nodes" : [
                0,
                1,
                2,
                3,
                4
            ]
        }
    ],
    "nodes" : [
        {
            "mesh" : 0,
            "name" : "head"
        },
        {
            "mesh" : 1,
            "name" : "midle",
            "translation" : [
                0,
                -0.10176117718219757,
                0
            ]
        },
        {
            "mesh" : 2,
            "name" : "tail",
            "translation" : [
                0,
                -0.1980290561914444,
                0
            ]
        },
        {
            "mesh" : 3,
            "name" : "arena"
        },
        {
            "mesh" : 4,
            "name" : "up",
            "scale" : [
                0.03872540220618248,
                0.03872540220618248,
                0.03872540220618248
            ]
        }
    ],
    "materials" : [
        {
            "doubleSided" : true,
            "emissiveFactor" : [
                0,
                0,
                0
            ],
            "name" : "Material.002",
            "pbrMetallicRoughness" : {
                "baseColorTexture" : {
                    "index" : 0,
                    "texCoord" : 0
                },
                "metallicFactor" : 0,
                "roughnessFactor" : 0
            }
        }
    ],
    "meshes" : [
        {
            "name" : "head",
            "primitives" : [
                {
                    "attributes" : {
                        "POSITION" : 0,
                        "TEXCOORD_0" : 1
                    },
                    "indices" : 2,
                    "material" : 0
                }
            ]
        },
        {
            "name" : "midle",
            "primitives" : [
                {
                    "attributes" : {
                        "POSITION" : 3,
                        "TEXCOORD_0" : 4
                    },
                    "indices" : 5,
                    "material" : 0
                }
            ]
        },
        {
            "name" : "tail",
            "primitives" : [
                {
                    "attributes" : {
                        "POSITION" : 6,
                        "TEXCOORD_0" : 7
                    },
                    "indices" : 8,
                    "material" : 0
                }
            ]
        },
        {
            "name" : "arena",
            "primitives" : [
                {
                    "attributes" : {
                        "POSITION" : 9,
                        "TEXCOORD_0" : 10
                    },
                    "indices" : 11,
                    "material" : 0
                }
            ]
        },
        {
            "name" : "up",
            "primitives" : [
                {
                    "attributes" : {
                        "POSITION" : 12,
                        "TEXCOORD_0" : 13
                    },
                    "indices" : 14,
                    "material" : 0
                }
            ]
        }
    ],
    "textures" : [
        {
            "source" : 0
        }
    ],
    "images" : [
        {
            "mimeType" : "image/jpeg",
            "name" : "texture",
            "uri" : "texture.jpg"
        }
    ],
    "accessors" : [
        {
            "bufferView" : 0,
            "componentType" : 5126,
            "count" : 114,
            "max" : [
                0.062168922275304794,
                0.10057152062654495,
                0.02199372462928295
            ],
            "min" : [
                -0.062168922275304794,
                -0.06750543415546417,
                -0.038459859788417816
            ],
            "type" : "VEC3"
        },
        {
            "bufferView" : 1,
            "componentType" : 5126,
            "count" : 114,
            "type" : "VEC2"
        },
        {
            "bufferView" : 2,
            "componentType" : 5123,
            "count" : 114,
            "type" : "SCALAR"
        },
        {
            "bufferView" : 3,
            "componentType" : 5126,
            "count" : 108,
            "max" : [
                0.05390890687704086,
                0.06543565541505814,
                0.007648707367479801
            ],
            "min" : [
                -0.05390890687704086,
                -0.049319442361593246,
                -0.03813125938177109
            ],
            "type" : "VEC3"
        },
        {
            "bufferView" : 4,
            "componentType" : 5126,
            "count" : 108,
            "type" : "VEC2"
        },
        {
            "bufferView" : 5,
            "componentType" : 5123,
            "count" : 108,
            "type" : "SCALAR"
        },
        {
            "bufferView" : 6,
            "componentType" : 5126,
            "count" : 96,
            "max" : [
                0.05390890687704086,
                0.06543565541505814,
                0.007648707367479801
            ],
            "min" : [
                -0.05390890687704086,
                -0.10512693971395493,
                -0.038131266832351685
            ],
            "type" : "VEC3"
        },
        {
            "bufferView" : 7,
            "componentType" : 5126,
            "count" : 96,
            "type" : "VEC2"
        },
        {
            "bufferView" : 8,
            "componentType" : 5123,
            "count" : 96,
            "type" : "SCALAR"
        },
        {
            "bufferView" : 9,
            "componentType" : 5126,
            "count" : 30,
            "max" : [
                0.10000007599592209,
                0.10000001639127731,
                0.042650192975997925
            ],
            "min" : [
                -0.10000000149011612,
                -0.10000000149011612,
                -0.042650386691093445
            ],
            "type" : "VEC3"
        },
        {
            "bufferView" : 10,
            "componentType" : 5126,
            "count" : 30,
            "type" : "VEC2"
        },
        {
            "bufferView" : 11,
            "componentType" : 5123,
            "count" : 30,
            "type" : "SCALAR"
        },
        {
            "bufferView" : 12,
            "componentType" : 5126,
            "count" : 24,
            "max" : [
                1,
                1,
                2.740130662918091
            ],
            "min" : [
                -1,
                -1,
                -2.740130662918091
            ],
            "type" : "VEC3"
        },
        {
            "bufferView" : 13,
            "componentType" : 5126,
            "count" : 24,
            "type" : "VEC2"
        },
        {
            "bufferView" : 14,
            "componentType" : 5123,
            "count" : 24,
            "type" : "SCALAR"
        }
    ],
    "bufferViews" : [
        {
            "buffer" : 0,
            "byteLength" : 1368,
            "byteOffset" : 0
        },
        {
            "buffer" : 0,
            "byteLength" : 912,
            "byteOffset" : 1368
        },
        {
            "buffer" : 0,
            "byteLength" : 228,
            "byteOffset" : 2280
        },
        {
            "buffer" : 0,
            "byteLength" : 1296,
            "byteOffset" : 2508
        },
        {
            "buffer" : 0,
            "byteLength" : 864,
            "byteOffset" : 3804
        },
        {
            "buffer" : 0,
            "byteLength" : 216,
            "byteOffset" : 4668
        },
        {
            "buffer" : 0,
            "byteLength" : 1152,
            "byteOffset" : 4884
        },
        {
            "buffer" : 0,
            "byteLength" : 768,
            "byteOffset" : 6036
        },
        {
            "buffer" : 0,
            "byteLength" : 192,
            "byteOffset" : 6804
        },
        {
            "buffer" : 0,
            "byteLength" : 360,
            "byteOffset" : 6996
        },
        {
            "buffer" : 0,
            "byteLength" : 240,
            "byteOffset" : 7356
        },
        {
            "buffer" : 0,
            "byteLength" : 60,
            "byteOffset" : 7596
        },
        {
            "buffer" : 0,
            "byteLength" : 288,
            "byteOffset" : 7656
        },
        {
            "buffer" : 0,
            "byteLength" : 192,
            "byteOffset" : 7944
        },
        {
            "buffer" : 0,
            "byteLength" : 48,
            "byteOffset" : 8136
        }
    ],
    "buffers" : [
        {
            "byteLength" : 8184,
            "uri" : "snake.bin"
        }
    ]
}
